<?xml version="1.0" encoding="UTF-8" standalone="no"?>
<svg
   width="512"
   height="512"
   version="1.1"
   viewBox="0 0 512 512"
   id="svg2"
   inkscape:version="1.2.2 (b0a8486541, 2022-12-01)"
   sodipodi:docname="update.svg"
   inkscape:export-filename="/home/wolf/Documents/lubuntu/brand2/installer.png"
   inkscape:export-xdpi="90"
   inkscape:export-ydpi="90"
   xmlns:inkscape="http://www.inkscape.org/namespaces/inkscape"
   xmlns:sodipodi="http://sodipodi.sourceforge.net/DTD/sodipodi-0.dtd"
   xmlns="http://www.w3.org/2000/svg"
   xmlns:svg="http://www.w3.org/2000/svg"
   xmlns:rdf="http://www.w3.org/1999/02/22-rdf-syntax-ns#"
   xmlns:cc="http://creativecommons.org/ns#">
  <metadata
     id="metadata22">
    <rdf:RDF>
      <cc:Work
         rdf:about="" />
    </rdf:RDF>
  </metadata>
  <defs
     id="defs20" />
  <sodipodi:namedview
     pagecolor="#ffffff"
     bordercolor="#666666"
     borderopacity="1"
     objecttolerance="10"
     gridtolerance="10"
     guidetolerance="10"
     inkscape:pageopacity="0"
     inkscape:pageshadow="2"
     inkscape:window-width="1920"
     inkscape:window-height="990"
     id="namedview18"
     showgrid="false"
     inkscape:zoom="1.1196294"
     inkscape:cx="-86.189236"
     inkscape:cy="159.42776"
     inkscape:current-layer="svg2"
     inkscape:showpageshadow="2"
     inkscape:pagecheckerboard="0"
     inkscape:deskcolor="#d1d1d1"
     inkscape:window-x="0"
     inkscape:window-y="0"
     inkscape:window-maximized="1" />
  <path
     style="opacity:0.2;stroke-width:8"
     d="M 240,28 C 115.904,28 16,127.904 16,252 16,376.096 115.904,476 240,476 364.096,476 464,376.096 464,252 464,127.904 364.096,28 240,28 Z"
     id="path4"
     inkscape:connector-curvature="0"
     sodipodi:nodetypes="sssss" />
  <path
     style="fill:#0068c8;fill-opacity:1;stroke-width:8"
     d="M 240,20 C 115.904,20 16,119.904 16,244 16,368.096 115.904,468 240,468 364.096,468 464,368.096 464,244 464,119.904 364.096,20 240,20 Z"
     id="path8"
     inkscape:connector-curvature="0"
     sodipodi:nodetypes="sssss" />
  <path
     style="opacity:0.2;fill:#ffffff;stroke-width:8"
     d="M 240,20 C 115.904,20 16,119.904 16,244 c 0,0.9076 0.09024,1.7929 0.140624,2.6875 C 18.95297,125.07345 117.68582,28 240,28 362.31418,28 461.04703,125.07345 463.85938,246.6875 463.90976,245.7929 464,244.9076 464,244 464,119.904 364.096,20 240,20 Z"
     id="path10"
     inkscape:connector-curvature="0"
     sodipodi:nodetypes="sscscss" />
  <path
     style="fill:#ffffff;fill-opacity:1;stroke:none;stroke-width:8"
     d="m 269.10347,107.39168 c -9.58334,0.052 -19.15657,2.46279 -27.58809,7.02393 -10.37721,5.61374 -18.98083,14.45497 -24.31028,24.98107 -5.32933,10.5261 -7.36063,22.69091 -5.7428,34.37791 1.61796,11.68688 6.87763,22.8437 14.86611,31.52617 -4.15065,-7.72078 -6.11736,-16.6004 -5.61919,-25.352 0.498,-8.75161 3.46028,-17.34966 8.4603,-24.54958 5.00003,-7.19992 12.02214,-12.97864 20.04849,-16.50235 8.02634,-3.5237 17.03332,-4.78058 25.71761,-3.58829 12.16805,1.67061 23.59308,8.23918 31.15796,17.915 H 427.31586 L 320.95438,138.56533 c -8.84824,-16.80207 -26.3556,-28.73511 -45.22943,-30.82646 -2.19885,-0.24384 -4.41004,-0.358 -6.62148,-0.3476 z M 78.488688,128.10836 c -7.791208,15.39202 -10.872648,33.12817 -8.73124,50.24618 2.141536,17.11814 9.497488,33.54929 20.840408,46.54752 6.347568,7.27398 13.950844,13.41352 22.326724,18.20966 L 89.206224,236.4429 c -1.14392,13.37072 1.486312,27.04414 7.507952,39.03684 6.021644,11.9927 15.418094,22.26642 26.825214,29.33483 16.93333,10.49277 38.25673,13.62972 57.49371,8.45513 -19.27005,0.13744 -38.36684,-9.43316 -49.79108,-24.95216 -6.44627,-8.7568 -10.499,-19.25735 -11.60919,-30.07409 l 112.61463,18.41743 -91.04559,-25.5992 c -7.28384,-3.53667 -13.93943,-8.37329 -19.49352,-14.26626 -7.6798,-8.14852 -13.25918,-18.26142 -16.05775,-29.10333 -3.20426,-12.41408 -2.72932,-25.75263 1.34702,-37.90836 l 134.28625,75.28264 z m 218.992062,58.78806 c -2.65746,5.51168 -4.50614,11.41167 -5.46667,17.45471 -2.97872,18.74258 2.59508,37.67646 8.14995,55.82322 5.55474,18.14676 11.21699,37.02968 8.41556,55.79963 -2.09303,14.02373 -8.93642,27.15127 -18.51211,37.60837 -9.57582,10.45711 -21.79536,18.31537 -34.9251,23.6683 -21.63584,8.82099 -45.96869,10.89326 -68.78476,5.85861 v 62.39477 l 18.76217,-44.53762 c 24.31626,5.54565 50.34774,3.30244 73.35679,-6.32163 16.4716,-6.88956 31.50268,-17.61592 42.34369,-31.80242 10.84087,-14.18637 17.3123,-31.91616 16.85473,-49.76474 -0.54992,-21.4518 -10.68913,-41.3322 -20.50086,-60.41653 -9.81187,-19.0842 -19.75279,-39.1183 -19.86173,-60.57697 -0.01,-1.73078 0.052,-3.46106 0.16864,-5.1877 z"
     id="path4489"
     inkscape:connector-curvature="0" />
  <circle
     style="fill:#1caff3;stroke-width:8"
     cx="368"
     cy="356"
     r="128"
     id="circle12" />
  <path
     style="fill:#ffffff;stroke-width:8"
     d="m 368.2784,292 47.7248,64 h -32 v 64 h -32 v -64 h -32 z"
     id="path14" />
  <path
     style="opacity:0.2;stroke-width:8"
     d="M 240.20313,360 A 128,128.01515 0 0 0 240,363.98485 128,128.01515 0 0 0 368,492 128,128.01515 0 0 0 496,363.98485 128,128.01515 0 0 0 495.85938,360.04688 128,128.01515 0 0 1 368,483.99906 128,128.01515 0 0 1 240.20313,360 Z"
     id="path16" />
</svg>
